<?xml version="1.0" encoding="UTF-8"?><svg id="Layer_1" xmlns="http://www.w3.org/2000/svg" viewBox="0 0 358.2 268.34"><defs><style>.cls-1{fill:none;stroke:#fff;stroke-miterlimit:10;stroke-width:1.16px;}</style></defs><path class="cls-1" d="M351.84,81.83c-.87-1.65-4.78-8.47-12.94-12.6-10.4-5.26-22.19-3.32-28.14-.82-.04,.01-.07,0-.1-.02-3.91-4.55-8.2-8.89-12.82-12.99,0,0,0,0,0,0-26.1-25.86,18.82-36.39-14.97-42.04-48.06-6.22-111.58-3.55-158.37-3.61-8.87,.23-32.94,1.1-49.16,3.61-33.8,5.64,11.13,16.18-14.98,42.05h0c-4.61,4.06-8.9,8.4-12.83,12.99-.03,.03-.06,.04-.1,.02-5.95-2.51-17.74-4.43-28.13,.82-8.16,4.13-12.07,10.95-12.94,12.6-6.68,12.7-2.84,27.28,3.75,35.76,.82,1.05,6.11,7.71,10.92,8.58,.05,0,.08,.05,.07,.1-.48,3.97-.73,7.98-.71,12.03,0,48.54,14.41,81.26,60.2,97.93h0s.01,0,.03,0c1.7,.62,3.44,1.21,5.23,1.79,1.22,.55,2.18,1.16,2.22,1.72,.11,1.59,0,5,0,5,0,0-.34,3.63,1.82,4.88,2.16,1.25,17.26,8.51,65.96,9.31,48.7,.79,71.86-1.14,76.63-1.48,4.77-.34,20.27-2.67,25.09-4.03,4.83-1.36,9.25-3.29,9.59-3.46,.34-.17,2.21-1.34,2.21-2.29v-6.05s0,0,0,0c0-.05,.26-2.88,3.6-4.03,0,0,0,0,.01,0,49.81-16.48,64.85-50.25,64.85-99.29,0-4.06-.25-8.07-.73-12.03,0-.05,.02-.09,.07-.1,4.82-.85,10.12-7.53,10.94-8.58,6.59-8.48,10.43-23.06,3.75-35.76ZM23.53,113.39c-.01,.06-.08,.09-.13,.06-4.24-2.29-6.71-6.54-7.62-8.12-3.43-5.91-2.65-14.32,1.25-20.44,.77-1.2,4.96-7.87,12.03-8.97,3.13-.49,5.06,.38,10.73,2.26,.06,.02,.08,.09,.05,.14-7.49,10.78-13.08,22.61-16.31,35.07Zm318.89-8.06c-.92,1.58-3.39,5.84-7.64,8.13-.05,.03-.12,0-.13-.06-3.2-12.47-8.76-24.26-16.29-35.08-.03-.05,0-.12,.05-.14,5.67-1.87,7.6-2.74,10.73-2.26,7.08,1.1,11.27,7.77,12.03,8.97,3.9,6.12,4.68,14.52,1.25,20.44Z"/></svg>